<svg width="10" height="10" viewBox="0 0 10 10" fill="none" xmlns="http://www.w3.org/2000/svg">
<path d="M3.6 8V3.2H3V2.77368H3.6V2H4.15263V2.77368H5.61316V3.2H4.15263V3.91842C4.15263 4.03421 4.14737 4.13947 4.13684 4.23421C4.13158 4.32895 4.12369 4.41842 4.11316 4.50263H4.16053C4.29211 4.29211 4.47368 4.13158 4.70526 4.02105C4.93684 3.90526 5.19737 3.84737 5.48684 3.84737C5.99737 3.84737 6.36842 3.97632 6.6 4.23421C6.83158 4.48684 6.94737 4.85263 6.94737 5.33158C6.94737 5.45263 6.92631 5.58947 6.88421 5.74211C6.84737 5.89474 6.78947 6.06316 6.71053 6.24737C6.62631 6.43158 6.56316 6.58947 6.52105 6.72105C6.48421 6.85263 6.46579 6.95789 6.46579 7.03684C6.46579 7.2 6.49737 7.37368 6.56053 7.55789C6.62369 7.73684 6.6921 7.88421 6.76579 8H6.16579C6.09211 7.88421 6.02632 7.73158 5.96842 7.54211C5.91579 7.35263 5.88947 7.17368 5.88947 7.00526C5.88947 6.9 5.9079 6.77632 5.94474 6.63421C5.98684 6.49211 6.04737 6.33158 6.12631 6.15263C6.21053 5.95789 6.27105 5.79474 6.30789 5.66316C6.35 5.52632 6.37105 5.41579 6.37105 5.33158C6.37105 4.97368 6.28947 4.71842 6.12631 4.56579C5.96316 4.40789 5.71842 4.32895 5.39211 4.32895C5.11842 4.32895 4.88947 4.38684 4.70526 4.50263C4.52105 4.61842 4.38158 4.79737 4.28684 5.03947C4.19737 5.27632 4.15263 5.58421 4.15263 5.96316V8H3.6Z" fill="#A3B0E1"/>
</svg>
