<svg width="10" height="10" viewBox="0 0 10 10" fill="none" xmlns="http://www.w3.org/2000/svg">
<path d="M5 8C4.58919 8 4.2 7.92162 3.83243 7.76486C3.47027 7.60811 3.15135 7.39189 2.87568 7.11622C2.60541 6.84054 2.39189 6.52162 2.23513 6.15946C2.07838 5.7973 2 5.41081 2 5C2 4.58378 2.07568 4.19459 2.22703 3.83243C2.38378 3.47027 2.5973 3.15405 2.86757 2.88378C3.14324 2.60811 3.46216 2.39189 3.82432 2.23513C4.19189 2.07838 4.58378 2 5 2C5.41081 2 5.7973 2.07838 6.15946 2.23513C6.52162 2.39189 6.84054 2.60811 7.11622 2.88378C7.39189 3.15405 7.60811 3.47027 7.76487 3.83243C7.92162 4.19459 8 4.58378 8 5C8 5.41081 7.92162 5.8 7.76487 6.16757C7.60811 6.52973 7.39189 6.84865 7.11622 7.12432C6.84595 7.39459 6.52973 7.60811 6.16757 7.76486C5.80541 7.92162 5.41622 8 5 8ZM4.70811 7.37568V5.29189H2.62432C2.65676 5.55676 2.73243 5.80811 2.85135 6.04595C2.97027 6.28378 3.12162 6.4973 3.30541 6.68649C3.48919 6.87027 3.7 7.02162 3.93784 7.14054C4.17568 7.25946 4.43243 7.33784 4.70811 7.37568ZM5.29189 7.37568C5.56216 7.34324 5.81622 7.26757 6.05405 7.14865C6.29189 7.02973 6.5027 6.87838 6.68649 6.69459C6.87027 6.50541 7.02162 6.29189 7.14054 6.05405C7.25946 5.81622 7.33514 5.56216 7.36757 5.29189H5.29189V7.37568ZM2.62432 4.70811H4.70811V2.62432C4.44324 2.65676 4.19189 2.73243 3.95405 2.85135C3.71622 2.97027 3.5027 3.12432 3.31351 3.31351C3.12432 3.4973 2.97027 3.70811 2.85135 3.94595C2.73243 4.18378 2.65676 4.43784 2.62432 4.70811ZM5.29189 4.70811H7.36757C7.33514 4.43784 7.25946 4.18378 7.14054 3.94595C7.02162 3.70811 6.86757 3.4973 6.67838 3.31351C6.4946 3.12432 6.28379 2.97027 6.04595 2.85135C5.81351 2.73243 5.56216 2.65676 5.29189 2.62432V4.70811Z" fill="#A3B0E1"/>
</svg>
