<svg width="10" height="10" viewBox="0 0 10 10" fill="none" xmlns="http://www.w3.org/2000/svg">
<path d="M4.59973 8V7.14399H3.66447V6.77147H4.59973V6.13738C3.96565 6.1004 3.47952 5.87847 3.14135 5.4716C2.80845 5.05945 2.64201 4.48085 2.64201 3.7358V3.3395L2 3.44254L2.84016 2.50727L3.68032 3.44254L3.03831 3.3395V3.7358C3.03831 4.34346 3.17305 4.81902 3.44254 5.16248C3.7173 5.50595 4.10304 5.69881 4.59973 5.74108V2.83223L3.95773 2.93527L4.81374 2L5.66975 2.93527L5.02774 2.83223V5.74108C5.52444 5.69881 5.90753 5.50595 6.17701 5.16248C6.45178 4.81902 6.58917 4.34346 6.58917 3.7358V3.3395L5.94716 3.44254L6.78732 2.50727L7.62748 3.44254L6.98547 3.3395V3.7358C6.98547 4.48085 6.81638 5.05945 6.4782 5.4716C6.14531 5.87847 5.66182 6.1004 5.02774 6.13738V6.77147H5.96301V7.14399H5.02774V8H4.59973Z" fill="#A3B0E1"/>
</svg>
