<svg width="10" height="10" viewBox="0 0 10 10" fill="none" xmlns="http://www.w3.org/2000/svg">
<path d="M4.4233 8.22136C3.98835 8.22136 3.58447 8.11262 3.21165 7.89515C2.8466 7.67767 2.55146 7.38641 2.32622 7.02136C2.10874 6.64854 2 6.24078 2 5.79806C2 5.36311 2.10874 4.96699 2.32622 4.60971C2.55146 4.24466 2.8466 3.9534 3.21165 3.73592C3.58447 3.51845 3.98835 3.40971 4.4233 3.40971C4.68738 3.40971 4.93981 3.45243 5.18058 3.53786C5.42136 3.61553 5.65049 3.73204 5.86796 3.88738L6.95146 2.67573L6.03107 2.22136L7.98835 2L8 3.96893L7.42912 3.09515L6.32233 4.3301C6.50097 4.54757 6.63301 4.78058 6.71845 5.02913C6.80388 5.2699 6.8466 5.52621 6.8466 5.79806C6.8466 6.24078 6.73787 6.64854 6.52039 7.02136C6.30291 7.38641 6.00777 7.67767 5.63495 7.89515C5.2699 8.11262 4.86602 8.22136 4.4233 8.22136ZM4.4233 7.63883C4.75728 7.63883 5.06408 7.55728 5.34369 7.39417C5.6233 7.2233 5.84466 6.99806 6.00777 6.71845C6.17864 6.43883 6.26408 6.13204 6.26408 5.79806C6.26408 5.47184 6.17864 5.17282 6.00777 4.90097C5.84466 4.62136 5.6233 4.4 5.34369 4.23689C5.06408 4.07379 4.75728 3.99223 4.4233 3.99223C4.08932 3.99223 3.78252 4.07379 3.50291 4.23689C3.2233 4.4 2.99806 4.62136 2.82719 4.90097C2.66408 5.17282 2.58253 5.47184 2.58253 5.79806C2.58253 6.13204 2.66408 6.43883 2.82719 6.71845C2.99806 6.99806 3.2233 7.2233 3.50291 7.39417C3.78252 7.55728 4.08932 7.63883 4.4233 7.63883Z" fill="#A3B0E1"/>
</svg>
