<svg width="10" height="10" viewBox="0 0 10 10" fill="none" xmlns="http://www.w3.org/2000/svg">
<path d="M4.78389 8.45553V7.39111H3.62091V6.92789H4.78389V6.06058C4.4488 6.01458 4.14655 5.89631 3.87716 5.70577C3.60777 5.51522 3.39423 5.27212 3.23654 4.97644C3.07885 4.68077 3 4.3621 3 4.02043C3 3.65248 3.09199 3.31739 3.27596 3.01514C3.46651 2.70633 3.71619 2.45994 4.025 2.27596C4.34038 2.09199 4.68205 2 5.05 2C5.42452 2 5.76619 2.09199 6.075 2.27596C6.39038 2.45994 6.64006 2.70633 6.82404 3.01514C7.00801 3.31739 7.1 3.65248 7.1 4.02043C7.1 4.35553 7.02115 4.67091 6.86346 4.96659C6.70577 5.26226 6.49223 5.50865 6.22284 5.70577C5.96002 5.89631 5.65777 6.01458 5.31611 6.06058V6.92789H6.4101V7.39111H5.31611V8.45553H4.78389ZM5.05 5.57764C5.33253 5.57764 5.59207 5.50865 5.82861 5.37067C6.06514 5.22612 6.2524 5.03558 6.39038 4.79904C6.53494 4.5625 6.60721 4.30297 6.60721 4.02043C6.60721 3.74447 6.53494 3.49151 6.39038 3.26154C6.2524 3.03157 6.06514 2.8476 5.82861 2.70962C5.59207 2.56506 5.33253 2.49279 5.05 2.49279C4.76747 2.49279 4.50793 2.56506 4.27139 2.70962C4.03486 2.8476 3.84431 3.03157 3.69976 3.26154C3.56178 3.49151 3.49279 3.74447 3.49279 4.02043C3.49279 4.30297 3.56178 4.5625 3.69976 4.79904C3.84431 5.03558 4.03486 5.22612 4.27139 5.37067C4.50793 5.50865 4.76747 5.57764 5.05 5.57764Z" fill="#A3B0E1"/>
</svg>
