<svg width="10" height="10" viewBox="0 0 10 10" fill="none" xmlns="http://www.w3.org/2000/svg">
<path d="M5.0135 8.52174C4.8036 8.52174 4.61169 8.47077 4.43778 8.36882C4.26986 8.26687 4.13493 8.13194 4.03298 7.96402C3.93103 7.79011 3.88006 7.5982 3.88006 7.38831C3.88006 7.13044 3.95802 6.89955 4.11394 6.69565C4.26987 6.49176 4.46777 6.35982 4.70765 6.29985V4.55472H3.46627V6.6147H2V6.02099H2.83658V2.5937H2V2H3.46627V3.98801H4.70765V2H5.29235V3.98801H6.53374V2H8V2.5937H7.16342V6.02099H8V6.6147H6.53374V4.55472H5.29235V6.29086C5.54423 6.35682 5.74813 6.49475 5.90405 6.70465C6.06597 6.90855 6.14693 7.13643 6.14693 7.38831C6.14693 7.59221 6.09596 7.78111 5.99401 7.95503C5.89805 8.12294 5.76312 8.26087 5.58921 8.36882C5.42129 8.47077 5.22939 8.52174 5.0135 8.52174ZM5.0135 7.97302C5.18141 7.97302 5.31934 7.91904 5.42729 7.8111C5.54123 7.69715 5.5982 7.55622 5.5982 7.38831C5.5982 7.22639 5.54123 7.08846 5.42729 6.97451C5.31334 6.86057 5.17542 6.8036 5.0135 6.8036C4.84558 6.8036 4.70465 6.86057 4.59071 6.97451C4.48276 7.08246 4.42878 7.22039 4.42878 7.38831C4.42878 7.55622 4.48276 7.69715 4.59071 7.8111C4.70465 7.91904 4.84558 7.97302 5.0135 7.97302Z" fill="#A3B0E1"/>
</svg>
