<svg width="10" height="10" viewBox="0 0 10 10" fill="none" xmlns="http://www.w3.org/2000/svg">
<path d="M4.74038 8.84798V7.78524H3.60577V7.32276H4.74038V6.45683C4.41346 6.41091 4.11859 6.29283 3.85577 6.10259C3.59295 5.91235 3.38462 5.6729 3.23077 5.38426C3.07692 5.08906 3 4.76761 3 4.41993C3 4.05257 3.09615 3.71144 3.28846 3.39656C3.48077 3.07512 3.73397 2.82583 4.04808 2.64871C3.72756 2.46503 3.47115 2.36449 3.27885 2.04305C3.09295 1.72161 3 1.37392 3 1H3.48077C3.48077 1.28208 3.54808 1.54121 3.68269 1.77737C3.82372 2.01353 4.00962 2.20377 4.24038 2.34809C4.47115 2.48586 4.72436 2.40271 5 2.40271C5.28205 2.40271 5.53846 2.48586 5.76923 2.34809C6 2.20377 6.18269 2.01353 6.31731 1.77737C6.45192 1.54121 6.51923 1.28208 6.51923 1H7C7 1.38048 6.90385 1.73145 6.71154 2.05289C6.52564 2.37433 6.27244 2.47159 5.95192 2.64871C6.27244 2.82583 6.52564 3.07184 6.71154 3.38672C6.90385 3.7016 7 4.04601 7 4.41993C7 4.76105 6.92308 5.07922 6.76923 5.37442C6.61538 5.66306 6.40705 5.90579 6.14423 6.10259C5.88782 6.29283 5.59295 6.41091 5.25962 6.45683V7.32276H6.39423V7.78524H5.25962V8.84798H4.74038ZM5 5.97467C5.27564 5.97467 5.52885 5.90579 5.75962 5.76802C5.99038 5.6237 6.17308 5.43346 6.30769 5.1973C6.44872 4.96114 6.51923 4.70201 6.51923 4.41993C6.51923 4.14441 6.44872 3.89185 6.30769 3.66224C6.17308 3.43264 5.99038 3.24896 5.75962 3.1112C5.52885 2.96688 5.27564 2.89471 5 2.89471C4.72436 2.89471 4.47115 2.9636 4.24038 3.10136C4.00962 3.23912 3.82372 3.4228 3.68269 3.6524C3.54808 3.88201 3.48077 4.13785 3.48077 4.41993C3.48077 4.69545 3.54808 4.9513 3.68269 5.18746C3.82372 5.42362 4.00962 5.61386 4.24038 5.75818C4.47115 5.90251 4.72436 5.97467 5 5.97467Z" fill="#A3B0E1"/>
</svg>
