<svg width="10" height="10" viewBox="0 0 10 10" fill="none" xmlns="http://www.w3.org/2000/svg">
<path d="M6.83276 8.72964V6.95667H2.04766V6.34662H2.5052C2.9119 6.34662 3.27412 6.28943 3.59186 6.17504C3.91595 6.06066 4.19237 5.90179 4.42114 5.69844C4.64991 5.49509 4.82467 5.25361 4.94541 4.974C5.06615 4.6944 5.12652 4.39255 5.12652 4.06846C5.12652 3.59185 5.00896 3.22964 4.77383 2.9818C4.54506 2.73397 4.25274 2.61005 3.89688 2.61005C3.54737 2.61005 3.25506 2.73079 3.01993 2.97227C2.78481 3.20739 2.66724 3.53466 2.66724 3.95407H2C2 3.57279 2.07626 3.23599 2.22877 2.94367C2.38128 2.65136 2.60052 2.42259 2.88648 2.25737C3.17244 2.08579 3.50924 2 3.89688 2C4.29723 2 4.6372 2.08579 4.91681 2.25737C5.20277 2.42259 5.41883 2.65771 5.56499 2.96274C5.7175 3.26141 5.79376 3.61092 5.79376 4.01126C5.79376 4.28452 5.75245 4.5673 5.66984 4.85962C5.58723 5.14558 5.45061 5.41883 5.25997 5.67938C5.07568 5.93356 4.81831 6.15598 4.48787 6.34662H6.83276V2.11438H7.5V8.72964H6.83276Z" fill="#A3B0E1"/>
</svg>
