<svg width="162" height="85" viewBox="0 0 162 85" fill="none" xmlns="http://www.w3.org/2000/svg">
<path d="M34.1543 38.0322C37.9629 38.4619 41.0781 39.8486 43.5 42.1924C46.0781 44.6924 47.3672 47.7588 47.3672 51.3916V51.4795C47.3672 55.1904 46.0977 58.3057 43.5586 60.8252C41 63.3643 37.8848 64.6338 34.2129 64.6338C30.502 64.6338 27.3867 63.3643 24.8672 60.8252C22.2891 58.208 21 55.1318 21 51.5967V51.2158L25.6875 49.165V51.6846C25.6875 54.0283 26.5273 56.0205 28.207 57.6611C29.8867 59.3213 31.8887 60.1514 34.2129 60.1514C36.5762 60.1514 38.5879 59.3213 40.248 57.6611C41.9082 55.9814 42.7383 53.9795 42.7383 51.6553C42.7383 49.2139 41.9375 47.2314 40.3359 45.708C38.5 43.9697 36.498 43.0225 34.3301 42.8662C30.6191 42.5732 27.709 41.3721 25.5996 39.2627C23.4121 37.0947 22.3184 34.4775 22.3184 31.4111C22.3184 28.3252 23.3926 25.7178 25.541 23.5889C27.6895 21.4404 30.2871 20.3662 33.334 20.3662C36.4199 20.3662 39.0273 21.4404 41.1562 23.5889C43.3242 25.7764 44.4082 28.374 44.4082 31.3818V31.6748L39.7207 33.7842V31.4697C39.6816 29.6533 39.0566 28.1494 37.8457 26.958C36.5762 25.708 35.0723 25.083 33.334 25.083C31.5957 25.083 30.1211 25.6885 28.9102 26.8994C27.6602 28.1689 27.0352 29.6729 27.0352 31.4111C27.0352 33.1494 27.6602 34.6436 28.9102 35.8936C30.082 37.0654 31.8301 37.7783 34.1543 38.0322Z" fill="white"/>
<path d="M65.5215 38.0322C69.3301 38.4619 72.4453 39.8486 74.8672 42.1924C77.4453 44.6924 78.7344 47.7588 78.7344 51.3916V51.4795C78.7344 55.1904 77.4648 58.3057 74.9258 60.8252C72.3672 63.3643 69.252 64.6338 65.5801 64.6338C61.8691 64.6338 58.7539 63.3643 56.2344 60.8252C53.6562 58.208 52.3672 55.1318 52.3672 51.5967V51.2158L57.0547 49.165V51.6846C57.0547 54.0283 57.8945 56.0205 59.5742 57.6611C61.2539 59.3213 63.2559 60.1514 65.5801 60.1514C67.9434 60.1514 69.9551 59.3213 71.6152 57.6611C73.2754 55.9814 74.1055 53.9795 74.1055 51.6553C74.1055 49.2139 73.3047 47.2314 71.7031 45.708C69.8672 43.9697 67.8652 43.0225 65.6973 42.8662C61.9863 42.5732 59.0762 41.3721 56.9668 39.2627C54.7793 37.0947 53.6855 34.4775 53.6855 31.4111C53.6855 28.3252 54.7598 25.7178 56.9082 23.5889C59.0566 21.4404 61.6543 20.3662 64.7012 20.3662C67.7871 20.3662 70.3945 21.4404 72.5234 23.5889C74.6914 25.7764 75.7754 28.374 75.7754 31.3818V31.6748L71.0879 33.7842V31.4697C71.0488 29.6533 70.4238 28.1494 69.2129 26.958C67.9434 25.708 66.4395 25.083 64.7012 25.083C62.9629 25.083 61.4883 25.6885 60.2773 26.8994C59.0273 28.1689 58.4023 29.6729 58.4023 31.4111C58.4023 33.1494 59.0273 34.6436 60.2773 35.8936C61.4492 37.0654 63.1973 37.7783 65.5215 38.0322Z" fill="white"/>
<path d="M155.199 62.243C154.439 65.0797 151.752 67.3621 147.306 68.9894C142.876 70.6109 136.812 71.5365 129.526 71.7346C114.96 72.1305 95.6274 69.6165 74.9888 64.0864C54.3501 58.5563 36.3504 51.067 23.9342 43.4414C17.7232 39.6268 12.9346 35.7933 9.90864 32.1739C6.87185 28.5415 5.6863 25.2215 6.44639 22.3849C7.20648 19.5482 9.89318 17.2658 14.3393 15.6385C18.7696 14.0169 24.8333 13.0913 32.1195 12.8933C46.6851 12.4973 66.0179 15.0113 86.6566 20.5414C107.295 26.0716 125.295 33.5608 137.711 41.1865C143.922 45.0011 148.711 48.8345 151.737 52.454C154.774 56.0863 155.959 59.4063 155.199 62.243Z" stroke="#A3B0E1"/>
<path fill-rule="evenodd" clip-rule="evenodd" d="M89.8192 65.1076C86.9493 66.3631 83.7344 64.2605 83.7344 61.128V25.0135C83.7344 23.0271 84.9103 21.229 86.7303 20.4328L89.0429 19.421C89.6775 19.1434 90.3628 19.0006 91.0555 19.0018L103.894 19.0239C107.026 19.0292 109.125 22.244 107.869 25.113V25.113C107.177 26.6952 105.614 27.7175 103.887 27.7175H97.4219C94.6605 27.7175 92.4219 29.9561 92.4219 32.7175V33.2488C92.4219 36.0102 94.6604 38.2488 97.4219 38.2488H103.889C107.022 38.2488 109.124 41.4637 107.869 44.3336V44.3336C107.177 45.9146 105.615 46.9363 103.889 46.9363H97.4219C94.6605 46.9363 92.4219 49.1748 92.4219 51.9363V61.128C92.4219 62.8538 91.4003 64.4159 89.8192 65.1076V65.1076ZM90.4219 49.9363C90.4219 47.1748 92.6605 44.9363 95.4219 44.9363H103.889C104.82 44.9363 105.663 44.385 106.036 43.5319V43.5319C106.714 41.9834 105.579 40.2488 103.889 40.2488H95.4219C92.6605 40.2488 90.4219 38.0102 90.4219 35.2488V30.7175C90.4219 27.9561 92.6605 25.7175 95.4219 25.7175H103.887C104.819 25.7175 105.663 25.1656 106.037 24.3113V24.3113C106.715 22.7624 105.582 21.0268 103.891 21.0239L91.4723 21.0025C90.7796 21.0013 90.0942 21.1441 89.4596 21.4217L88.7303 21.7408C86.9103 22.537 85.7344 24.3351 85.7344 26.3216V61.128C85.7344 62.8182 87.4691 63.9527 89.0175 63.2753V63.2753C89.8706 62.902 90.4219 62.0592 90.4219 61.128V49.9363Z" fill="#A3B0E1"/>
<circle cx="105" cy="69" r="9" fill="#A3B0E1"/>
<path d="M127.154 38.0322C130.963 38.4619 134.078 39.8486 136.5 42.1924C139.078 44.6924 140.367 47.7588 140.367 51.3916V51.4795C140.367 55.1904 139.098 58.3057 136.559 60.8252C134 63.3643 130.885 64.6338 127.213 64.6338C123.502 64.6338 120.387 63.3643 117.867 60.8252C115.289 58.208 114 55.1318 114 51.5967V51.2158L118.688 49.165V51.6846C118.688 54.0283 119.527 56.0205 121.207 57.6611C122.887 59.3213 124.889 60.1514 127.213 60.1514C129.576 60.1514 131.588 59.3213 133.248 57.6611C134.908 55.9814 135.738 53.9795 135.738 51.6553C135.738 49.2139 134.938 47.2314 133.336 45.708C131.5 43.9697 129.498 43.0225 127.33 42.8662C123.619 42.5732 120.709 41.3721 118.6 39.2627C116.412 37.0947 115.318 34.4775 115.318 31.4111C115.318 28.3252 116.393 25.7178 118.541 23.5889C120.689 21.4404 123.287 20.3662 126.334 20.3662C129.42 20.3662 132.027 21.4404 134.156 23.5889C136.324 25.7764 137.408 28.374 137.408 31.3818V31.6748L132.721 33.7842V31.4697C132.682 29.6533 132.057 28.1494 130.846 26.958C129.576 25.708 128.072 25.083 126.334 25.083C124.596 25.083 123.121 25.6885 121.91 26.8994C120.66 28.1689 120.035 29.6729 120.035 31.4111C120.035 33.1494 120.66 34.6436 121.91 35.8936C123.082 37.0654 124.83 37.7783 127.154 38.0322Z" fill="white"/>
<circle cx="49" cy="14" r="5" fill="#A3B0E1"/>
</svg>
