{
  "accessors": [
    {
      "bufferView": 1,
      "componentType": 5126,
      "count": 65532,
      "max": [
        1469.8206787109375,
        1012.2980346679688,
        2290.066162109375
      ],
      "min": [
        0.0,
        10.56414794921875,
        0.0
      ],
      "type": "VEC3"
    },
    {
      "bufferView": 1,
      "byteOffset": 786384,
      "componentType": 5126,
      "count": 65532,
      "max": [
        0.999988317489624,
        0.9999825954437256,
        0.9999998807907104
      ],
      "min": [
        -0.999957263469696,
        -0.9999675750732422,
        -0.9999994039535522
      ],
      "type": "VEC3"
    },
    {
      "bufferView": 0,
      "componentType": 5125,
      "count": 305634,
      "type": "SCALAR"
    },
    {
      "bufferView": 1,
      "byteOffset": 1572768,
      "componentType": 5126,
      "count": 65532,
      "max": [
        1469.8206787109375,
        1001.68896484375,
        2324.2783203125
      ],
      "min": [
        31.1815185546875,
        0.0,
        0.06675219535827637
      ],
      "type": "VEC3"
    },
    {
      "bufferView": 1,
      "byteOffset": 2359152,
      "componentType": 5126,
      "count": 65532,
      "max": [
        0.99998539686203,
        0.9999713897705078,
        0.9999998211860657
      ],
      "min": [
        -0.9999932050704956,
        -0.9999992251396179,
        -0.999998927116394
      ],
      "type": "VEC3"
    },
    {
      "bufferView": 0,
      "byteOffset": 1222536,
      "componentType": 5125,
      "count": 308355,
      "type": "SCALAR"
    },
    {
      "bufferView": 1,
      "byteOffset": 3145536,
      "componentType": 5126,
      "count": 65533,
      "max": [
        1469.45166015625,
        1003.5259399414063,
        2319.331787109375
      ],
      "min": [
        0.0,
        6.800323486328125,
        0.05212903022766113
      ],
      "type": "VEC3"
    },
    {
      "bufferView": 1,
      "byteOffset": 3931932,
      "componentType": 5126,
      "count": 65533,
      "max": [
        0.99998539686203,
        0.9999839067459106,
        0.9999989867210388
      ],
      "min": [
        -0.9999905824661255,
        -0.999991238117218,
        -0.9999976754188538
      ],
      "type": "VEC3"
    },
    {
      "bufferView": 0,
      "byteOffset": 2455956,
      "componentType": 5125,
      "count": 246852,
      "type": "SCALAR"
    },
    {
      "bufferView": 1,
      "byteOffset": 4718328,
      "componentType": 5126,
      "count": 8289,
      "max": [
        1466.5111083984375,
        1007.3930053710938,
        2316.515625
      ],
      "min": [
        25.23822021484375,
        4.37689208984375,
        0.04285025596618652
      ],
      "type": "VEC3"
    },
    {
      "bufferView": 1,
      "byteOffset": 4817796,
      "componentType": 5126,
      "count": 8289,
      "max": [
        0.9998835325241089,
        0.9999399185180664,
        0.9999969601631165
      ],
      "min": [
        -0.9999645352363586,
        -0.9999675750732422,
        -0.999996542930603
      ],
      "type": "VEC3"
    },
    {
      "bufferView": 0,
      "byteOffset": 3443364,
      "componentType": 5125,
      "count": 10746,
      "type": "SCALAR"
    }
  ],
  "asset": {
    "extras": {
      "author": "SMK – National Gallery of Denmark (https://sketchfab.com/smkmuseum)",
      "license": "CC0-1.0 (http://creativecommons.org/publicdomain/zero/1.0/)",
      "source": "https://sketchfab.com/3d-models/apollo-belvedere-fe5c0cffdc2a4f3985872212c692af0c",
      "title": "Apollo Belvedere"
    },
    "generator": "Sketchfab-12.68.0",
    "version": "2.0"
  },
  "bufferViews": [
    {
      "buffer": 0,
      "byteLength": 3486348,
      "name": "floatBufferViews",
      "target": 34963
    },
    {
      "buffer": 0,
      "byteLength": 4917264,
      "byteOffset": 3486348,
      "byteStride": 12,
      "name": "floatBufferViews",
      "target": 34962
    }
  ],
  "buffers": [
    {
      "byteLength": 8403612,
      "uri": "scene.bin"
    }
  ],
  "materials": [
    {
      "doubleSided": true,
      "name": "default",
      "pbrMetallicRoughness": {
        "metallicFactor": 0.0,
        "roughnessFactor": 0.6
      }
    }
  ],
  "meshes": [
    {
      "name": "Object_0",
      "primitives": [
        {
          "attributes": {
            "NORMAL": 1,
            "POSITION": 0
          },
          "indices": 2,
          "material": 0,
          "mode": 4
        }
      ]
    },
    {
      "name": "Object_1",
      "primitives": [
        {
          "attributes": {
            "NORMAL": 4,
            "POSITION": 3
          },
          "indices": 5,
          "material": 0,
          "mode": 4
        }
      ]
    },
    {
      "name": "Object_2",
      "primitives": [
        {
          "attributes": {
            "NORMAL": 7,
            "POSITION": 6
          },
          "indices": 8,
          "material": 0,
          "mode": 4
        }
      ]
    },
    {
      "name": "Object_3",
      "primitives": [
        {
          "attributes": {
            "NORMAL": 10,
            "POSITION": 9
          },
          "indices": 11,
          "material": 0,
          "mode": 4
        }
      ]
    }
  ],
  "nodes": [
    {
      "children": [
        1
      ],
      "matrix": [
        0.0010000000474974513,
        0.0,
        0.0,
        0.0,
        0.0,
        2.220446154715841e-19,
        -0.0010000000474974513,
        0.0,
        0.0,
        0.0010000000474974513,
        2.220446154715841e-19,
        0.0,
        0.0,
        0.0,
        0.0,
        1.0
      ],
      "name": "Sketchfab_model"
    },
    {
      "children": [
        2
      ],
      "matrix": [
        1.0,
        0.0,
        0.0,
        0.0,
        0.0,
        1.0,
        0.0,
        0.0,
        0.0,
        0.0,
        1.0,
        0.0,
        -552.1919555664063,
        -466.31982421875,
        -0.9001089930534363,
        1.0
      ],
      "name": "Apollo_Belvedere_SMK_KAS353_10pct.obj.cleaner.gles"
    },
    {
      "children": [
        3,
        4,
        5,
        6
      ],
      "name": "Object_2"
    },
    {
      "mesh": 0,
      "name": "Object_3"
    },
    {
      "mesh": 1,
      "name": "Object_4"
    },
    {
      "mesh": 2,
      "name": "Object_5"
    },
    {
      "mesh": 3,
      "name": "Object_6"
    }
  ],
  "scene": 0,
  "scenes": [
    {
      "name": "Sketchfab_Scene",
      "nodes": [
        0
      ]
    }
  ]
}
